# xmcd
#
# Track frame offsets:
#	150
#	16526
#	33556
#	53906
#	72224
#	89696
#	109276
#	124706
#	142755
#	161471
#	180229
#	199196
#	218552
#	236691
#	256718
#	277050
#	295116
#
# Disc length: 4135 seconds
#
# Revision: 5
# Processed by: cddbd v1.5.2PL0 Copyright (c) Steve Scherf et al.
# Submitted via: EZCDAudioConverter 7.1.7.1
#
DISCID=ea102511
DTITLE=刘德华 - 我们的刘德华(粤) Disc 01
DYEAR=2012
DGENRE=
TTITLE0=一生爱
TTITLE1=无心快意
TTITLE2=长途伴侣
TTITLE3=你是我所有
TTITLE4=未到伤心处
TTITLE5=没有翅膀的天使
TTITLE6=心照
TTITLE7=观世音
TTITLE8=我得你
TTITLE9=继续谈情
TTITLE10=按摩女郎
TTITLE11=常言道
TTITLE12=如果我有事
TTITLE13=无须担心
TTITLE14=如果有一天
TTITLE15=17岁
TTITLE16=无间道(独唱版)
EXTD=
EXTT0=
EXTT1=
EXTT2=
EXTT3=
EXTT4=
EXTT5=
EXTT6=
EXTT7=
EXTT8=
EXTT9=
EXTT10=
EXTT11=
EXTT12=
EXTT13=
EXTT14=
EXTT15=
EXTT16=
PLAYORDER=
